<?xml version="1.0" encoding="UTF-8" standalone="no" ?>
<svg xmlns="http://www.w3.org/2000/svg" xmlns:xlink="http://www.w3.org/1999/xlink" version="1.1" width="1080" height="1080" viewBox="0 0 1080 1080" xml:space="preserve">
  <g transform="matrix(12.43 0 0 12.43 540 540)">
    <path style="fill: rgb(0,0,0)" vector-effect="non-scaling-stroke"  transform=" translate(-50, -50)" d="M 50 92.875 C 26.358 92.875 7.125 73.642 7.125 50 C 7.125 26.358000000000004 26.358 7.125 50 7.125 C 73.642 7.125 92.875 26.358 92.875 50 C 92.875 73.642 73.642 92.875 50 92.875 z M 50 9.125 C 27.461 9.125 9.125 27.461 9.125 50 C 9.125 72.538 27.461 90.875 50 90.875 C 72.538 90.875 90.875 72.538 90.875 50 C 90.875 27.461 72.538 9.125 50 9.125 z" stroke-linecap="round" />
  </g>
  <g transform="matrix(7.21 0 0 7.21 540 540)">
    <path style="fill: rgb(0,0,0)" vector-effect="non-scaling-stroke"  transform=" translate(-50, -50)" d="M 81.123 47.531 C 83.818 50.271 83.818 54.711999999999996 81.123 57.405 L 54.954 83.574 C 52.214 86.315 47.82 86.315 45.081 83.574 L 18.91 57.405 C 16.169 54.712 16.169 50.271 18.91 47.531 C 22.689 43.988 33.082 51.784 42.436 55.42 L 42.436 18.999 C 42.436 16.448 44.513 14.37 47.064 14.37 L 54.055 14.37 C 56.607 14.37 58.684 16.448 58.684 18.999 L 58.684 54.947 C 67.518 51.216 76.967 44.319 81.123 47.531 z" stroke-linecap="round" />
  </g>
</svg>
